<svg version="1.1" id="Layer_1" xmlns="http://www.w3.org/2000/svg" xmlns:xlink="http://www.w3.org/1999/xlink" x="0px" y="0px"
	 width="100%" viewBox="0 0 539 359" enable-background="new 0 0 539 359" xml:space="preserve">
<path fill="#0B0F0D" opacity="1.000000" stroke="none" 
	d="
M300.000000,360.000000 
	C200.027679,360.000000 100.555359,360.000000 1.041518,360.000000 
	C1.041518,240.394318 1.041518,120.788605 1.041518,1.000000 
	C90.747292,1.000000 180.494705,1.000000 270.242126,1.000000 
	C360.050476,1.000000 449.858826,1.000000 539.833618,1.000000 
	C539.833618,120.666489 539.833618,240.333221 539.833618,360.000000 
	C460.121918,360.000000 380.310944,360.000000 300.000000,360.000000 
M245.175262,77.866745 
	C234.171631,79.484032 227.406189,85.857018 225.050598,96.344902 
	C224.602631,98.339401 222.921021,100.056808 221.162125,102.073059 
	C214.079330,107.739822 210.845230,114.950043 212.294922,124.748642 
	C211.864731,125.497719 211.434540,126.246788 210.286148,126.988930 
	C202.332809,130.273285 197.537674,136.051361 195.940414,144.996933 
	C202.923523,144.996933 209.522263,145.056763 216.117493,144.931778 
	C217.095047,144.913239 218.225296,144.208206 218.997757,143.505219 
	C224.760315,138.261047 229.334610,139.042847 233.155197,146.811020 
	C233.173920,147.860718 233.192642,148.910400 232.881790,150.598755 
	C228.840729,157.182571 224.587646,157.884033 218.764008,152.955368 
	C218.160355,152.444489 217.441711,151.706451 216.768036,151.697403 
	C209.862259,151.604477 202.954742,151.640457 195.696472,151.640457 
	C197.594147,161.773636 203.609634,167.372238 212.166168,170.464096 
	C210.460144,180.538101 213.583359,188.228714 221.009369,194.466431 
	C222.803436,195.973404 224.352966,198.409195 224.876221,200.680237 
	C227.056030,210.141281 234.660782,217.270905 244.652267,218.613983 
	C253.683441,219.827988 262.763947,215.087677 267.329865,206.219849 
	C267.329865,194.208206 267.329865,182.196548 267.329865,170.077332 
	C262.885498,170.077332 258.941956,170.077332 254.249664,169.899796 
	C253.502106,170.009445 252.754532,170.119095 251.350876,170.640594 
	C251.572861,173.614105 251.794846,176.587601 252.531067,180.090836 
	C257.885132,185.859802 257.016296,190.659195 249.180481,194.256287 
	C248.141006,194.270752 247.101517,194.285217 245.421783,193.964920 
	C240.042755,190.688828 238.060272,185.770798 241.757996,182.322754 
	C245.318604,179.002625 244.947495,175.457443 244.991745,171.597534 
	C245.023499,168.825180 244.997940,166.052185 244.997940,163.345963 
	C246.699112,163.166870 247.848785,163.045837 249.919144,163.111725 
	C255.701401,163.111725 261.483673,163.111725 267.471924,163.111725 
	C267.471924,153.779755 267.471924,144.911880 267.471924,135.507111 
	C261.436340,135.507111 255.688675,135.507111 249.443420,135.507111 
	C249.443420,131.068802 249.443420,127.156700 249.443420,122.193504 
	C246.169235,123.009766 243.570435,123.529404 241.056442,124.319046 
	C238.327698,125.176132 235.677902,126.284508 232.341873,126.970345 
	C226.855927,123.701874 226.015976,121.382240 228.649460,114.693604 
	C233.623901,110.509514 237.045013,110.818283 242.963608,116.326965 
	C247.306992,116.475327 251.650391,116.623680 256.001892,117.729080 
	C256.001892,121.473633 256.001892,125.218178 256.001892,129.285873 
	C260.101013,129.096191 263.546478,128.936752 267.659698,128.305649 
	C267.699982,116.985931 267.502930,105.657990 267.894165,94.350418 
	C268.056854,89.649750 266.513428,86.023232 262.969360,83.600731 
	C259.641510,81.326042 255.696198,79.954674 251.287842,77.957237 
	C250.522079,77.971634 249.756317,77.986023 248.557312,77.680237 
	C247.693588,77.781563 246.829849,77.882896 245.175262,77.866745 
M295.584808,77.684319 
	C294.726593,77.789688 293.868408,77.895058 292.194916,77.890381 
	C284.558228,78.579803 278.643738,81.978256 274.343872,89.475517 
	C274.343872,95.147301 274.343872,100.819084 274.343872,107.168808 
	C279.940887,106.744904 284.884705,106.370461 290.400146,105.569717 
	C294.954773,101.107681 299.890259,100.820885 303.193237,104.826332 
	C306.503021,108.840027 305.289825,113.510422 299.111938,117.314728 
	C297.420746,117.268379 295.729553,117.222023 293.469086,116.747505 
	C291.072388,115.357689 289.752930,111.719627 285.089630,113.023613 
	C281.728973,113.110222 278.368347,113.196831 274.339874,113.740677 
	C274.296997,137.692719 274.247253,161.644775 274.244812,185.596817 
	C274.244720,186.306915 274.742065,187.017090 275.902496,187.974792 
	C279.147522,187.974792 282.392517,187.974792 285.996063,187.974792 
	C285.996063,182.968674 285.996063,178.393707 286.862244,173.480865 
	C291.230438,173.319260 295.598602,173.157654 300.642273,172.898758 
	C302.436249,171.525070 304.230225,170.151382 306.810272,168.846634 
	C307.860535,168.828506 308.910797,168.810379 310.589874,169.116028 
	C312.213348,170.781631 313.836853,172.447235 315.495270,174.907333 
	C315.481720,176.227951 315.468170,177.548569 315.072449,179.483414 
	C313.373505,181.059814 311.674561,182.636230 309.190979,184.150772 
	C308.143219,184.184677 307.095459,184.218582 305.370789,183.955566 
	C301.641357,181.365112 298.111267,178.087555 292.433014,180.624710 
	C292.433014,184.938416 292.433014,189.526810 292.433014,194.613052 
	C286.148438,194.613052 280.389832,194.613052 274.257355,194.613052 
	C274.647125,200.912170 272.476532,206.932053 277.860321,211.881363 
	C284.420898,217.912445 291.846252,220.240250 300.373047,217.879013 
	C308.685638,215.577057 314.301331,210.097092 316.288666,201.589844 
	C317.081665,198.195389 318.686615,196.082245 321.235687,193.676926 
	C324.549561,190.549881 326.475220,185.951706 329.420868,181.277100 
	C330.432343,173.261215 331.443817,165.245331 332.474487,157.077332 
	C324.572510,157.077332 317.785645,157.077332 310.190521,156.900040 
	C308.813354,156.925217 307.436157,156.950394 305.632446,156.131821 
	C305.554443,152.342438 305.585846,148.546082 305.344788,144.767090 
	C305.247833,143.247375 304.947632,141.459274 304.062347,140.319748 
	C300.155640,135.291168 299.941681,130.989899 303.775757,127.821609 
	C307.709137,124.571251 312.397949,125.780754 316.287170,131.888855 
	C316.251709,133.579346 316.216248,135.269836 315.733185,137.538422 
	C311.466675,140.839111 311.014923,145.167526 313.054810,150.340698 
	C321.272675,150.340698 329.490540,150.340698 338.227051,150.340698 
	C338.227051,155.604294 338.227051,160.121506 338.227051,165.039124 
	C351.998810,153.522766 348.000397,135.974472 329.756836,125.769470 
	C331.149414,115.225647 327.927643,106.624252 318.643982,100.609222 
	C317.667053,99.976242 317.258148,98.173820 316.961731,96.830963 
	C315.074921,88.283310 310.482025,82.085503 301.309937,78.803177 
	C299.550049,78.530693 297.790131,78.258209 295.584808,77.684319 
M223.407227,273.836426 
	C215.624924,273.836426 207.842621,273.836426 199.870117,273.836426 
	C199.870117,275.789459 199.870117,277.342865 199.870117,279.252014 
	C210.278366,279.252014 220.399826,279.340118 230.518723,279.217041 
	C236.088715,279.149323 239.410309,276.140991 239.699387,271.384766 
	C239.973358,266.876984 236.745102,263.367371 231.392212,262.513000 
	C229.762955,262.252991 228.085144,262.230896 226.428741,262.219299 
	C221.105881,262.182037 215.766800,262.430084 210.468735,262.064423 
	C208.778442,261.947754 207.196609,260.259735 205.565140,259.290741 
	C207.126129,258.458832 208.622009,257.441223 210.271835,256.862671 
	C211.308945,256.498962 212.576965,256.793243 213.741394,256.793243 
	C222.344803,256.793091 230.948196,256.793121 239.827637,256.793121 
	C239.723801,254.493729 239.645844,252.767181 239.560638,250.880371 
	C228.731171,250.880371 218.423340,250.729935 208.123077,250.943634 
	C202.948669,251.050980 199.611145,254.743164 199.616501,259.510193 
	C199.621857,264.270416 202.970490,267.585205 208.267700,267.944397 
	C210.421875,268.090546 212.590469,268.032196 214.752640,268.050415 
	C219.576508,268.091034 224.418152,267.899597 229.214218,268.282623 
	C230.773575,268.407166 232.213898,270.021912 233.708649,270.955048 
	C232.261703,271.914795 230.926834,273.230042 229.335480,273.731750 
	C227.822189,274.208862 226.040878,273.835815 223.407227,273.836426 
M275.500366,257.011963 
	C281.287018,257.011963 287.073669,257.011963 293.081573,257.011963 
	C292.965210,254.829163 292.879730,253.226151 292.788849,251.521591 
	C279.427063,251.521591 266.360657,251.521591 253.227112,251.521591 
	C253.227112,260.926117 253.227112,270.015442 253.227112,279.253601 
	C266.560760,279.253601 279.642395,279.253601 292.734192,279.253601 
	C292.734192,277.388428 292.734192,275.815094 292.734192,273.864777 
	C281.357605,273.864777 270.256561,273.864777 259.118164,273.864777 
	C259.118164,271.902527 259.118164,270.335266 259.118164,268.292572 
	C266.669342,268.292572 273.918640,268.292572 281.469055,268.292572 
	C281.349426,266.220154 281.258484,264.644592 281.132935,262.469360 
	C273.542816,262.469360 266.307617,262.469360 258.759216,262.469360 
	C258.886444,260.277588 258.976166,258.731415 259.076019,257.011047 
	C264.531982,257.011047 269.517212,257.011047 275.500366,257.011963 
M371.884003,279.542450 
	C378.026855,279.391022 384.171692,279.293182 390.311859,279.068146 
	C394.004669,278.932831 397.861969,277.929260 398.317566,273.821625 
	C398.948395,268.134033 398.943604,262.266327 398.219025,256.602661 
	C397.991974,254.827957 394.691711,252.360535 392.578705,252.117462 
	C386.351562,251.401077 379.991486,251.233856 373.725159,251.588959 
	C360.252960,252.352448 359.187225,253.739517 359.659454,267.155518 
	C360.020966,277.427704 360.995941,278.493225 371.884003,279.542450 
M342.320770,277.169373 
	C343.473511,277.677399 344.626221,278.185425 345.875702,278.736084 
	C345.875702,269.449219 345.875702,260.523468 345.875702,251.528381 
	C343.863495,251.528381 342.160919,251.528381 340.060883,251.528381 
	C340.060883,257.407745 340.060883,262.973633 340.060883,269.096649 
	C328.574310,263.151489 317.633484,257.488831 306.500916,251.726913 
	C306.500916,261.410217 306.500916,270.330780 306.500916,279.302338 
	C308.413086,279.302338 310.005798,279.302338 311.988342,279.302338 
	C311.988342,273.489502 311.988342,267.911316 311.988342,261.516449 
	C322.295715,266.857513 331.961304,271.866028 342.320770,277.169373 
M154.887253,273.064636 
	C156.429962,272.381714 157.931595,271.255951 159.523956,271.108185 
	C162.825089,270.801849 166.204071,271.293396 169.496262,270.942657 
	C173.425888,270.524017 176.263977,271.774261 178.040054,275.230988 
	C180.258560,279.548828 183.673828,280.019104 188.121964,278.744934 
	C180.463425,268.704773 173.031174,258.961273 165.472534,249.052094 
	C158.045517,259.036896 150.783585,268.799713 143.464172,278.639832 
	C149.437347,280.932709 151.995819,277.456940 154.887253,273.064636 
z"/>
<path fill="#D2D3D3" opacity="1.000000" stroke="none" 
	d="
M266.987823,206.954147 
	C262.763947,215.087677 253.683441,219.827988 244.652267,218.613983 
	C234.660782,217.270905 227.056030,210.141281 224.876221,200.680237 
	C224.352966,198.409195 222.803436,195.973404 221.009369,194.466431 
	C213.583359,188.228714 210.460144,180.538101 212.166168,170.464096 
	C203.609634,167.372238 197.594147,161.773636 195.696472,151.640457 
	C202.954742,151.640457 209.862259,151.604477 216.768036,151.697403 
	C217.441711,151.706451 218.160355,152.444489 218.764008,152.955368 
	C224.587646,157.884033 228.840729,157.182571 233.234543,150.034515 
	C233.461212,148.321564 233.335144,147.172836 233.209076,146.024109 
	C229.334610,139.042847 224.760315,138.261047 218.997757,143.505219 
	C218.225296,144.208206 217.095047,144.913239 216.117493,144.931778 
	C209.522263,145.056763 202.923523,144.996933 195.940414,144.996933 
	C197.537674,136.051361 202.332809,130.273285 210.940277,126.939316 
	C211.844635,125.946045 212.094849,125.002396 212.345062,124.058746 
	C210.845230,114.950043 214.079330,107.739822 221.752014,102.244492 
	C224.239685,106.636314 226.137497,110.856712 228.035309,115.077118 
	C226.015976,121.382240 226.855927,123.701874 232.686951,127.488998 
	C234.585403,131.798370 235.995697,135.655640 237.721741,139.366013 
	C241.393677,147.259415 245.229706,155.076477 248.998474,162.924805 
	C247.848785,163.045837 246.699112,163.166870 244.997940,163.345963 
	C244.997940,166.052185 245.023499,168.825180 244.991745,171.597534 
	C244.947495,175.457443 245.318604,179.002625 241.757996,182.322754 
	C238.060272,185.770798 240.042755,190.688828 245.988083,194.306305 
	C247.689636,194.529343 248.824875,194.410980 249.960129,194.292618 
	C257.016296,190.659195 257.885132,185.859802 252.277893,179.406403 
	C252.018814,175.890884 252.012894,173.059799 252.006973,170.228729 
	C252.754532,170.119095 253.502106,170.009445 254.640015,170.351562 
	C256.198761,173.152496 256.889374,175.956039 258.617340,177.773010 
	C266.547821,186.111984 268.188538,196.086075 266.987823,206.954147 
z"/>
<path fill="#CDCECE" opacity="1.000000" stroke="none" 
	d="
M306.024200,168.777710 
	C304.230225,170.151382 302.436249,171.525070 299.844696,172.936829 
	C294.696777,173.256165 290.346405,173.537445 285.996063,173.818741 
	C285.996063,178.393707 285.996063,182.968674 285.996063,187.974792 
	C282.392517,187.974792 279.147522,187.974792 275.458923,187.399811 
	C275.012817,162.311020 275.010254,137.797226 275.007690,113.283440 
	C278.368347,113.196831 281.728973,113.110222 285.547424,113.473846 
	C286.746582,115.888077 287.522095,117.839958 288.223846,119.818016 
	C292.789032,132.686172 304.113220,142.337799 305.738251,156.607452 
	C305.753418,156.740601 305.948120,156.853317 306.058990,156.975586 
	C307.436157,156.950394 308.813354,156.925217 310.653992,157.333603 
	C312.692444,160.290222 314.088013,162.949402 315.878235,165.309189 
	C320.152588,170.943466 324.613068,176.436569 328.998383,181.986694 
	C326.475220,185.951706 324.549561,190.549881 321.235687,193.676926 
	C318.686615,196.082245 317.081665,198.195389 316.288666,201.589844 
	C314.301331,210.097092 308.685638,215.577057 300.373047,217.879013 
	C291.846252,220.240250 284.420898,217.912445 277.860321,211.881363 
	C272.476532,206.932053 274.647125,200.912170 274.257355,194.613052 
	C280.389832,194.613052 286.148438,194.613052 292.433014,194.613052 
	C292.433014,189.526810 292.433014,184.938416 292.433014,180.624710 
	C298.111267,178.087555 301.641357,181.365112 305.957214,184.284760 
	C307.687622,184.480179 308.831604,184.346405 309.975586,184.212646 
	C311.674561,182.636230 313.373505,181.059814 315.411804,178.905197 
	C315.654205,176.922272 315.557251,175.517548 315.460327,174.112839 
	C313.836853,172.447235 312.213348,170.781631 310.030945,168.766357 
	C308.322754,168.537018 307.173492,168.657364 306.024200,168.777710 
z"/>
<path fill="#CBCCCB" opacity="1.000000" stroke="none" 
	d="
M305.845703,156.553711 
	C305.948120,156.853317 305.753418,156.740601 305.738251,156.607452 
	C304.113220,142.337799 292.789032,132.686172 288.223846,119.818016 
	C287.522095,117.839958 286.746582,115.888077 286.000977,113.545654 
	C289.752930,111.719627 291.072388,115.357689 294.036560,117.165985 
	C296.392029,117.470421 298.180054,117.356361 299.968048,117.242310 
	C305.289825,113.510422 306.503021,108.840027 303.193237,104.826332 
	C299.890259,100.820885 294.954773,101.107681 289.658630,105.778252 
	C286.263641,105.985435 283.577942,105.720390 280.963501,106.039291 
	C275.981415,106.646980 274.539093,104.448906 274.948364,99.796761 
	C275.266663,96.178741 274.967346,92.506393 274.942505,88.858185 
	C278.643738,81.978256 284.558228,78.579803 292.979980,77.954178 
	C294.520111,78.007217 295.275177,77.996475 296.030243,77.985725 
	C297.790131,78.258209 299.550049,78.530693 301.653687,79.389572 
	C304.373413,86.956818 306.085754,94.256615 309.257172,100.855141 
	C316.936890,116.833786 323.896881,133.306793 336.032471,146.719147 
	C336.500702,147.236649 336.519287,148.161011 337.085632,149.985382 
	C328.456635,149.985382 320.418243,149.985382 312.379822,149.985382 
	C311.014923,145.167526 311.466675,140.839111 316.159943,136.965637 
	C316.468506,134.606842 316.350311,132.820801 316.232117,131.034775 
	C312.397949,125.780754 307.709137,124.571251 303.775757,127.821609 
	C299.941681,130.989899 300.155640,135.291168 304.062347,140.319748 
	C304.947632,141.459274 305.247833,143.247375 305.344788,144.767090 
	C305.585846,148.546082 305.554443,152.342438 305.845703,156.553711 
z"/>
<path fill="#CFD0D0" opacity="1.000000" stroke="none" 
	d="
M228.342377,114.885361 
	C226.137497,110.856712 224.239685,106.636314 222.075241,102.158997 
	C222.921021,100.056808 224.602631,98.339401 225.050598,96.344902 
	C227.406189,85.857018 234.171631,79.484032 245.948456,77.943069 
	C247.477951,78.013069 248.234253,78.006744 248.990555,78.000420 
	C249.756317,77.986023 250.522079,77.971634 251.851593,78.371429 
	C252.613037,79.053146 252.890137,79.292374 252.996964,79.592262 
	C257.276031,91.602867 259.549591,104.363068 266.489899,115.391495 
	C267.122314,116.396423 266.925812,117.979744 266.952637,119.297775 
	C267.016968,122.456581 266.985016,125.617348 266.991913,128.777328 
	C263.546478,128.936752 260.101013,129.096191 256.001892,129.285873 
	C256.001892,125.218178 256.001892,121.473633 255.656525,117.036743 
	C250.975632,116.204956 246.640121,116.065498 242.304596,115.926041 
	C237.045013,110.818283 233.623901,110.509514 228.342377,114.885361 
z"/>
<path fill="#C8C9C9" opacity="1.000000" stroke="none" 
	d="
M312.717316,150.163040 
	C320.418243,149.985382 328.456635,149.985382 337.085632,149.985382 
	C336.519287,148.161011 336.500702,147.236649 336.032471,146.719147 
	C323.896881,133.306793 316.936890,116.833786 309.257172,100.855141 
	C306.085754,94.256615 304.373413,86.956818 301.997162,79.563568 
	C310.482025,82.085503 315.074921,88.283310 316.961731,96.830963 
	C317.258148,98.173820 317.667053,99.976242 318.643982,100.609222 
	C327.927643,106.624252 331.149414,115.225647 329.756836,125.769470 
	C348.000397,135.974472 351.998810,153.522766 338.227051,165.039124 
	C338.227051,160.121506 338.227051,155.604294 338.227051,150.340698 
	C329.490540,150.340698 321.272675,150.340698 312.717316,150.163040 
z"/>
<path fill="#CFD0D0" opacity="1.000000" stroke="none" 
	d="
M249.458801,163.018280 
	C245.229706,155.076477 241.393677,147.259415 237.721741,139.366013 
	C235.995697,135.655640 234.585403,131.798370 233.012848,127.645477 
	C235.677902,126.284508 238.327698,125.176132 241.056442,124.319046 
	C243.570435,123.529404 246.169235,123.009766 249.443420,122.193504 
	C249.443420,127.156700 249.443420,131.068802 249.443420,135.507111 
	C255.688675,135.507111 261.436340,135.507111 267.471924,135.507111 
	C267.471924,144.911880 267.471924,153.779755 267.471924,163.111725 
	C261.483673,163.111725 255.701401,163.111725 249.458801,163.018280 
z"/>
<path fill="#CED2D1" opacity="1.000000" stroke="none" 
	d="
M223.892319,273.836487 
	C226.040878,273.835815 227.822189,274.208862 229.335480,273.731750 
	C230.926834,273.230042 232.261703,271.914795 233.708649,270.955048 
	C232.213898,270.021912 230.773575,268.407166 229.214218,268.282623 
	C224.418152,267.899597 219.576508,268.091034 214.752640,268.050415 
	C212.590469,268.032196 210.421875,268.090546 208.267700,267.944397 
	C202.970490,267.585205 199.621857,264.270416 199.616501,259.510193 
	C199.611145,254.743164 202.948669,251.050980 208.123077,250.943634 
	C218.423340,250.729935 228.731171,250.880371 239.560638,250.880371 
	C239.645844,252.767181 239.723801,254.493729 239.827637,256.793121 
	C230.948196,256.793121 222.344803,256.793091 213.741394,256.793243 
	C212.576965,256.793243 211.308945,256.498962 210.271835,256.862671 
	C208.622009,257.441223 207.126129,258.458832 205.565140,259.290741 
	C207.196609,260.259735 208.778442,261.947754 210.468735,262.064423 
	C215.766800,262.430084 221.105881,262.182037 226.428741,262.219299 
	C228.085144,262.230896 229.762955,262.252991 231.392212,262.513000 
	C236.745102,263.367371 239.973358,266.876984 239.699387,271.384766 
	C239.410309,276.140991 236.088715,279.149323 230.518723,279.217041 
	C220.399826,279.340118 210.278366,279.252014 199.870117,279.252014 
	C199.870117,277.342865 199.870117,275.789459 199.870117,273.836426 
	C207.842621,273.836426 215.624924,273.836426 223.892319,273.836487 
z"/>
<path fill="#CCCFCE" opacity="1.000000" stroke="none" 
	d="
M275.001404,257.011505 
	C269.517212,257.011047 264.531982,257.011047 259.076019,257.011047 
	C258.976166,258.731415 258.886444,260.277588 258.759216,262.469360 
	C266.307617,262.469360 273.542816,262.469360 281.132935,262.469360 
	C281.258484,264.644592 281.349426,266.220154 281.469055,268.292572 
	C273.918640,268.292572 266.669342,268.292572 259.118164,268.292572 
	C259.118164,270.335266 259.118164,271.902527 259.118164,273.864777 
	C270.256561,273.864777 281.357605,273.864777 292.734192,273.864777 
	C292.734192,275.815094 292.734192,277.388428 292.734192,279.253601 
	C279.642395,279.253601 266.560760,279.253601 253.227112,279.253601 
	C253.227112,270.015442 253.227112,260.926117 253.227112,251.521591 
	C266.360657,251.521591 279.427063,251.521591 292.788849,251.521591 
	C292.879730,253.226151 292.965210,254.829163 293.081573,257.011963 
	C287.073669,257.011963 281.287018,257.011963 275.001404,257.011505 
z"/>
<path fill="#C7CAC9" opacity="1.000000" stroke="none" 
	d="
M371.433441,279.536530 
	C360.995941,278.493225 360.020966,277.427704 359.659454,267.155518 
	C359.187225,253.739517 360.252960,252.352448 373.725159,251.588959 
	C379.991486,251.233856 386.351562,251.401077 392.578705,252.117462 
	C394.691711,252.360535 397.991974,254.827957 398.219025,256.602661 
	C398.943604,262.266327 398.948395,268.134033 398.317566,273.821625 
	C397.861969,277.929260 394.004669,278.932831 390.311859,279.068146 
	C384.171692,279.293182 378.026855,279.391022 371.433441,279.536530 
M370.032990,273.811371 
	C374.680145,273.827911 379.327301,273.859314 383.974457,273.857758 
	C392.963165,273.854767 393.981018,272.794678 393.560883,263.924927 
	C393.529480,263.262573 393.356659,262.599335 393.387299,261.942932 
	C393.557434,258.297272 391.721375,256.934113 388.228271,257.047577 
	C382.590027,257.230743 376.946655,257.273346 371.304993,257.329773 
	C367.179565,257.371033 364.785095,258.986694 365.199982,263.528778 
	C365.395660,265.670776 364.902954,267.987427 365.565308,269.938751 
	C366.073486,271.435913 367.902496,272.484680 370.032990,273.811371 
z"/>
<path fill="#C5CAC8" opacity="1.000000" stroke="none" 
	d="
M341.973816,277.021942 
	C331.961304,271.866028 322.295715,266.857513 311.988342,261.516449 
	C311.988342,267.911316 311.988342,273.489502 311.988342,279.302338 
	C310.005798,279.302338 308.413086,279.302338 306.500916,279.302338 
	C306.500916,270.330780 306.500916,261.410217 306.500916,251.726913 
	C317.633484,257.488831 328.574310,263.151489 340.060883,269.096649 
	C340.060883,262.973633 340.060883,257.407745 340.060883,251.528381 
	C342.160919,251.528381 343.863495,251.528381 345.875702,251.528381 
	C345.875702,260.523468 345.875702,269.449219 345.875702,278.736084 
	C344.626221,278.185425 343.473511,277.677399 341.973816,277.021942 
z"/>
<path fill="#D6D8D7" opacity="1.000000" stroke="none" 
	d="
M154.636139,273.358582 
	C151.995819,277.456940 149.437347,280.932709 143.464172,278.639832 
	C150.783585,268.799713 158.045517,259.036896 165.472534,249.052094 
	C173.031174,258.961273 180.463425,268.704773 188.121964,278.744934 
	C183.673828,280.019104 180.258560,279.548828 178.040054,275.230988 
	C176.263977,271.774261 173.425888,270.524017 169.496262,270.942657 
	C166.204071,271.293396 162.825089,270.801849 159.523956,271.108185 
	C157.931595,271.255951 156.429962,272.381714 154.636139,273.358582 
M164.528732,259.949280 
	C163.421219,261.455963 162.313721,262.962616 161.011398,264.734314 
	C164.358551,264.734314 167.032318,264.734314 171.005707,264.734314 
	C168.426529,262.437927 166.694870,260.896149 164.528732,259.949280 
z"/>
<path fill="#CBCDCC" opacity="1.000000" stroke="none" 
	d="
M267.325806,128.541489 
	C266.985016,125.617348 267.016968,122.456581 266.952637,119.297775 
	C266.925812,117.979744 267.122314,116.396423 266.489899,115.391495 
	C259.549591,104.363068 257.276031,91.602867 252.996964,79.592262 
	C252.890137,79.292374 252.613037,79.053146 252.218964,78.485733 
	C255.696198,79.954674 259.641510,81.326042 262.969360,83.600731 
	C266.513428,86.023232 268.056854,89.649750 267.894165,94.350418 
	C267.502930,105.657990 267.699982,116.985931 267.325806,128.541489 
z"/>
<path fill="#CBCCCB" opacity="1.000000" stroke="none" 
	d="
M329.209625,181.631897 
	C324.613068,176.436569 320.152588,170.943466 315.878235,165.309189 
	C314.088013,162.949402 312.692444,160.290222 311.058105,157.422241 
	C317.785645,157.077332 324.572510,157.077332 332.474487,157.077332 
	C331.443817,165.245331 330.432343,173.261215 329.209625,181.631897 
z"/>
<path fill="#CFD0D0" opacity="1.000000" stroke="none" 
	d="
M267.158844,206.587006 
	C268.188538,196.086075 266.547821,186.111984 258.617340,177.773010 
	C256.889374,175.956039 256.198761,173.152496 255.014389,170.440338 
	C258.941956,170.077332 262.885498,170.077332 267.329865,170.077332 
	C267.329865,182.196548 267.329865,194.208206 267.158844,206.587006 
z"/>
<path fill="#CBCCCB" opacity="1.000000" stroke="none" 
	d="
M274.673767,113.512054 
	C275.010254,137.797226 275.012817,162.311020 275.011414,187.276016 
	C274.742065,187.017090 274.244720,186.306915 274.244812,185.596817 
	C274.247253,161.644775 274.296997,137.692719 274.673767,113.512054 
z"/>
<path fill="#C8C9C9" opacity="1.000000" stroke="none" 
	d="
M274.643188,89.166855 
	C274.967346,92.506393 275.266663,96.178741 274.948364,99.796761 
	C274.539093,104.448906 275.981415,106.646980 280.963501,106.039291 
	C283.577942,105.720390 286.263641,105.985435 289.372864,105.991409 
	C284.884705,106.370461 279.940887,106.744904 274.343872,107.168808 
	C274.343872,100.819084 274.343872,95.147301 274.643188,89.166855 
z"/>
<path fill="#CBCCCB" opacity="1.000000" stroke="none" 
	d="
M286.429138,173.649811 
	C290.346405,173.537445 294.696777,173.256165 299.506958,172.985474 
	C295.598602,173.157654 291.230438,173.319260 286.429138,173.649811 
z"/>
<path fill="#CBCDCC" opacity="1.000000" stroke="none" 
	d="
M242.634094,116.126503 
	C246.640121,116.065498 250.975632,116.204956 255.652466,116.558228 
	C251.650391,116.623680 247.306992,116.475327 242.634094,116.126503 
z"/>
<path fill="#CFD0D0" opacity="1.000000" stroke="none" 
	d="
M251.678925,170.434662 
	C252.012894,173.059799 252.018814,175.890884 252.020782,179.141541 
	C251.794846,176.587601 251.572861,173.614105 251.678925,170.434662 
z"/>
<path fill="#C8C9C9" opacity="1.000000" stroke="none" 
	d="
M316.259644,131.461823 
	C316.350311,132.820801 316.468506,134.606842 316.383759,136.676605 
	C316.216248,135.269836 316.251709,133.579346 316.259644,131.461823 
z"/>
<path fill="#C8C9C9" opacity="1.000000" stroke="none" 
	d="
M299.539978,117.278519 
	C298.180054,117.356361 296.392029,117.470421 294.321198,117.380066 
	C295.729553,117.222023 297.420746,117.268379 299.539978,117.278519 
z"/>
<path fill="#CBCCCB" opacity="1.000000" stroke="none" 
	d="
M315.477783,174.510086 
	C315.557251,175.517548 315.654205,176.922272 315.602875,178.598083 
	C315.468170,177.548569 315.481720,176.227951 315.477783,174.510086 
z"/>
<path fill="#CBCCCB" opacity="1.000000" stroke="none" 
	d="
M306.417236,168.812180 
	C307.173492,168.657364 308.322754,168.537018 309.716553,168.604462 
	C308.910797,168.810379 307.860535,168.828506 306.417236,168.812180 
z"/>
<path fill="#CFD0D0" opacity="1.000000" stroke="none" 
	d="
M212.319992,124.403694 
	C212.094849,125.002396 211.844635,125.946045 211.299377,126.942780 
	C211.434540,126.246788 211.864731,125.497719 212.319992,124.403694 
z"/>
<path fill="#CFD0D0" opacity="1.000000" stroke="none" 
	d="
M249.570312,194.274445 
	C248.824875,194.410980 247.689636,194.529343 246.308212,194.473694 
	C247.101517,194.285217 248.141006,194.270752 249.570312,194.274445 
z"/>
<path fill="#CBCCCB" opacity="1.000000" stroke="none" 
	d="
M309.583282,184.181702 
	C308.831604,184.346405 307.687622,184.480179 306.295654,184.433228 
	C307.095459,184.218582 308.143219,184.184677 309.583282,184.181702 
z"/>
<path fill="#CFD0D0" opacity="1.000000" stroke="none" 
	d="
M233.182129,146.417572 
	C233.335144,147.172836 233.461212,148.321564 233.399323,149.715195 
	C233.192642,148.910400 233.173920,147.860718 233.182129,146.417572 
z"/>
<path fill="#C8C9C9" opacity="1.000000" stroke="none" 
	d="
M295.807526,77.835022 
	C295.275177,77.996475 294.520111,78.007217 293.387634,78.009201 
	C293.868408,77.895058 294.726593,77.789688 295.807526,77.835022 
z"/>
<path fill="#CBCDCC" opacity="1.000000" stroke="none" 
	d="
M248.773926,77.840332 
	C248.234253,78.006744 247.477951,78.013069 246.343887,78.001808 
	C246.829849,77.882896 247.693588,77.781563 248.773926,77.840332 
z"/>
<path fill="#111714" opacity="1.000000" stroke="none" 
	d="
M369.588562,273.772125 
	C367.902496,272.484680 366.073486,271.435913 365.565308,269.938751 
	C364.902954,267.987427 365.395660,265.670776 365.199982,263.528778 
	C364.785095,258.986694 367.179565,257.371033 371.304993,257.329773 
	C376.946655,257.273346 382.590027,257.230743 388.228271,257.047577 
	C391.721375,256.934113 393.557434,258.297272 393.387299,261.942932 
	C393.356659,262.599335 393.529480,263.262573 393.560883,263.924927 
	C393.981018,272.794678 392.963165,273.854767 383.974457,273.857758 
	C379.327301,273.859314 374.680145,273.827911 369.588562,273.772125 
z"/>
<path fill="#141C19" opacity="1.000000" stroke="none" 
	d="
M164.745972,259.651825 
	C166.694870,260.896149 168.426529,262.437927 171.005707,264.734314 
	C167.032318,264.734314 164.358551,264.734314 161.011398,264.734314 
	C162.313721,262.962616 163.421219,261.455963 164.745972,259.651825 
z"/>
</svg>