<svg version="1.1" id="Layer_1" xmlns="http://www.w3.org/2000/svg" xmlns:xlink="http://www.w3.org/1999/xlink" x="0px" y="0px"
	 width="100%" viewBox="0 0 528 352" enable-background="new 0 0 528 352" xml:space="preserve">
<path fill="#000000" opacity="1.000000" stroke="none" 
	d="
M250.379822,77.380676 
	C255.271561,77.782730 259.188782,79.534302 262.613159,82.336327 
	C266.369293,85.409874 268.626556,89.019760 268.417419,94.333595 
	C268.031158,104.148491 268.321686,113.989357 268.295685,123.819321 
	C268.279938,129.784134 267.945160,130.078400 262.069427,129.725571 
	C260.250092,129.616333 258.432800,129.472672 256.584473,129.342667 
	C254.951218,126.803406 255.720078,124.068497 255.707458,121.495712 
	C255.693604,118.670570 254.963593,116.995888 251.769379,117.220123 
	C246.732574,117.573715 242.155640,117.127319 237.961365,113.357513 
	C235.232483,110.904816 231.523209,112.089066 229.152328,115.091423 
	C226.787659,118.085884 226.862885,121.354614 229.381943,124.213173 
	C231.900040,127.070656 235.084656,127.500618 238.407135,125.600006 
	C239.542770,124.950378 240.385208,123.800049 241.501907,123.103416 
	C246.043381,120.270317 250.087173,122.427765 250.225815,127.695869 
	C250.413101,134.812302 250.413101,134.813049 257.845825,134.815765 
	C269.854797,134.820145 268.188507,134.179688 268.302429,145.291321 
	C268.348541,149.789246 268.094910,154.299805 268.351471,158.783218 
	C268.581543,162.803513 266.836761,164.118484 263.070465,163.969757 
	C258.578430,163.792374 254.060883,164.112686 249.581467,163.812805 
	C246.156174,163.583511 245.092346,164.947021 245.322281,168.117737 
	C245.478531,170.272247 245.281570,172.450073 245.365402,174.612717 
	C245.471680,177.354279 245.000137,179.648453 242.952927,181.867233 
	C240.114273,184.943756 240.151733,188.603394 243.136688,191.729370 
	C245.776566,194.494003 250.468811,194.427444 253.020981,191.625900 
	C255.841476,188.529785 256.332001,185.158859 253.285202,181.836365 
	C252.044647,180.483566 250.882034,179.264526 250.683960,177.202133 
	C249.977585,169.846970 250.544113,169.118195 257.901550,169.054825 
	C268.234528,168.965820 268.234222,168.965820 268.230896,179.293869 
	C268.228729,185.958282 268.230927,192.622711 268.225311,199.287125 
	C268.215942,210.417374 261.035400,218.168503 249.740646,219.246933 
	C238.033401,220.364746 227.496796,213.001328 224.743973,201.530029 
	C224.008942,198.467010 222.747452,196.198700 220.187057,194.195786 
	C213.588409,189.033844 210.371399,182.057007 211.304718,173.653976 
	C211.619263,170.822052 210.131927,170.220840 208.313293,169.344727 
	C202.488388,166.538589 198.381851,162.179871 196.258453,156.009598 
	C195.139984,152.759521 195.789810,150.803009 199.668640,150.836533 
	C204.666367,150.879761 209.666016,150.905960 214.662369,150.810501 
	C217.079895,150.764297 218.599289,152.127426 220.306671,153.530197 
	C223.936356,156.512314 227.523056,156.232101 230.498810,153.012924 
	C233.305313,149.976852 233.341171,145.929871 230.586411,143.130737 
	C227.950714,140.452545 223.170471,140.183243 220.223495,143.101898 
	C218.319901,144.987198 216.357788,145.376266 213.963348,145.356079 
	C208.166473,145.307175 202.368912,145.340195 195.949478,145.340195 
	C196.258133,137.130203 200.191162,131.689880 206.400253,128.496277 
	C210.735321,126.266556 211.882828,123.621056 211.711487,119.183792 
	C211.433823,111.993301 214.886368,106.344246 220.393356,102.042938 
	C222.867111,100.110771 224.400879,98.178543 225.066895,94.904373 
	C227.106735,84.876442 237.155365,75.850067 250.379822,77.380676 
z"/>
<path fill="#000000" opacity="1.000000" stroke="none" 
	d="
M275.324463,86.772697 
	C282.074402,78.447227 290.433472,75.267563 300.402130,77.975037 
	C309.696503,80.499382 315.540070,86.799065 317.244293,96.416000 
	C317.644684,98.675461 318.776459,99.934326 320.422577,101.156792 
	C327.153442,106.155426 330.961487,112.691101 330.300934,121.256760 
	C330.038483,124.660187 331.543427,126.162544 334.377686,127.707481 
	C346.963318,134.567749 350.675659,150.324814 342.598785,161.519730 
	C341.629791,162.862823 340.772522,164.324036 338.539246,164.624069 
	C336.840576,161.591370 337.806305,158.239365 337.708771,155.078537 
	C337.623505,152.316544 336.600525,151.166107 333.831818,151.215088 
	C328.668701,151.306442 323.499390,151.336395 318.339355,151.176453 
	C316.135040,151.108109 312.813690,152.343674 312.008545,149.820084 
	C311.004761,146.673691 310.668091,142.948288 312.969299,139.818542 
	C313.657074,138.883148 314.635864,138.079666 315.054260,137.043304 
	C316.435059,133.623093 316.108124,130.415314 312.855713,128.184113 
	C309.942047,126.185326 306.857727,126.143509 304.132446,128.584839 
	C301.333893,131.091797 299.932922,134.695358 302.689148,137.390945 
	C306.805298,141.416534 306.341187,146.082901 306.141296,150.811874 
	C305.974915,154.749100 307.497040,156.189011 311.363708,156.053879 
	C316.687927,155.867767 322.025665,156.109131 327.355530,156.029312 
	C330.791534,155.977829 332.409088,157.083237 332.434052,160.928116 
	C332.481476,168.236008 329.816711,175.136276 329.680695,182.409790 
	C329.646393,184.243927 328.608643,186.515381 327.273010,187.791550 
	C320.886078,193.894226 317.431946,201.709930 313.148712,209.215210 
	C307.017822,219.957977 292.439667,222.334839 281.894867,215.779922 
	C274.760773,211.345169 271.914154,204.447968 273.749908,196.510468 
	C274.241943,194.382980 275.586578,193.917297 277.363190,193.882263 
	C280.694244,193.816605 284.031372,193.689835 287.356995,193.819229 
	C290.519379,193.942291 292.058472,192.774841 291.772766,189.472717 
	C291.644043,187.985260 291.669800,186.467087 291.802490,184.978607 
	C291.982788,182.955307 290.958893,180.232117 293.819641,179.433731 
	C296.361816,178.724258 299.106323,178.474243 301.461121,180.318741 
	C302.376495,181.035706 303.163849,181.945862 304.146881,182.541122 
	C307.492645,184.567047 310.667419,183.992493 313.132080,181.149429 
	C315.612274,178.288422 315.617706,174.881226 313.248016,172.001953 
	C310.889954,169.136765 307.079803,167.818375 304.428986,170.506302 
	C300.431458,174.559784 295.869537,174.436646 291.085754,174.173096 
	C287.288910,173.963928 285.902435,175.599518 286.331146,179.190887 
	C286.389984,179.683746 286.341522,180.189575 286.340179,180.689407 
	C286.320923,187.943924 282.702301,190.486435 275.837585,188.172806 
	C273.138855,187.263229 273.741333,185.038681 273.734894,183.175293 
	C273.676300,166.181458 273.693298,149.187378 273.689423,132.193359 
	C273.688354,127.528336 273.881866,122.853157 273.634216,118.201378 
	C273.422821,114.230316 274.615845,112.293343 278.922485,112.631287 
	C284.081604,113.036133 289.278015,111.749802 293.961639,115.907272 
	C296.509674,118.169075 300.374115,117.146034 302.770081,114.011566 
	C305.153992,110.892853 304.898895,107.735367 302.303040,104.965736 
	C299.526001,102.002785 295.791321,101.294182 292.969330,104.172104 
	C287.981262,109.259132 282.037506,106.711868 276.470947,107.185379 
	C275.225861,107.291298 273.958405,106.594597 273.968170,105.256783 
	C274.012482,99.184990 272.384583,92.995857 275.324463,86.772697 
z"/>
<path fill="#000000" opacity="1.000000" stroke="none" 
	d="
M211.022522,280.122559 
	C208.029205,280.110718 205.530685,280.073578 203.032639,280.094116 
	C200.534180,280.114685 198.825638,279.406250 198.892487,276.435730 
	C198.954849,273.664276 200.709778,273.165375 202.898392,273.155884 
	C210.726456,273.121887 218.556488,273.202850 226.381546,273.038635 
	C228.487167,272.994507 232.060181,274.164307 232.201950,271.096191 
	C232.341431,268.077332 228.606735,268.765289 226.581421,268.641937 
	C220.604614,268.277924 214.597580,268.439728 208.604202,268.310486 
	C203.066437,268.191132 199.458862,265.056580 199.022064,260.129456 
	C198.610504,255.487137 201.978149,251.294037 207.267197,250.614700 
	C217.043671,249.358978 226.889481,250.209854 236.704987,250.110977 
	C239.112823,250.086731 240.295471,251.260620 240.276230,253.826736 
	C240.256516,256.455566 239.010910,257.322693 236.574905,257.308533 
	C229.246689,257.265869 221.917984,257.305817 214.589478,257.313995 
	C213.257019,257.315491 211.922150,257.269684 210.592743,257.334656 
	C208.985245,257.413147 206.761383,257.044312 206.709991,259.353241 
	C206.661316,261.539978 208.778824,261.642578 210.452042,261.658325 
	C216.281067,261.713226 222.110825,261.715302 227.940186,261.697845 
	C230.465057,261.690277 232.964355,261.823639 235.213928,263.093079 
	C238.520691,264.959076 240.536652,267.747620 240.137924,271.642181 
	C239.726974,275.656189 237.530212,278.448792 233.429520,279.341705 
	C226.179062,280.920502 218.819672,279.787750 211.022522,280.122559 
z"/>
<path fill="#000000" opacity="1.000000" stroke="none" 
	d="
M273.862183,261.991394 
	C274.673401,262.001068 275.011444,261.967285 275.338043,262.013916 
	C278.055969,262.401855 281.983154,260.957306 282.036041,265.737762 
	C282.093109,270.901886 277.921173,268.918243 275.380249,269.095184 
	C271.074310,269.395050 266.734039,269.186951 262.408508,269.228119 
	C261.011414,269.241425 259.631073,269.499023 259.514984,271.262421 
	C259.374878,273.391022 260.910522,273.637115 262.511932,273.640808 
	C270.997589,273.660370 279.483734,273.615875 287.968628,273.700439 
	C290.294617,273.723633 293.323639,272.934723 293.249207,277.019104 
	C293.182983,280.652924 290.499603,280.203156 288.255035,280.214569 
	C278.105713,280.266144 267.954010,280.119049 257.807373,280.291351 
	C253.921249,280.357330 252.470673,278.955139 252.602615,275.053894 
	C252.827454,268.405914 252.772537,261.742981 252.634674,255.090515 
	C252.567993,251.872650 253.827484,250.652771 257.025635,250.683060 
	C267.673370,250.783951 278.322693,250.717209 288.971405,250.715668 
	C291.284424,250.715332 293.282043,250.916626 293.308075,254.088272 
	C293.334961,257.366669 291.235138,257.340332 288.968079,257.339966 
	C280.482361,257.338684 271.996460,257.325745 263.511017,257.377655 
	C261.779633,257.388214 259.408569,256.908691 259.551453,259.766602 
	C259.671570,262.168060 261.828857,261.783142 263.402191,261.840851 
	C266.726654,261.962799 270.056213,261.945404 273.862183,261.991394 
z"/>
<path fill="#000000" opacity="1.000000" stroke="none" 
	d="
M375.102875,250.752762 
	C381.389984,250.969131 387.217529,250.126831 393.000427,251.525375 
	C397.208588,252.543091 399.280884,255.017960 399.322815,259.251495 
	C399.364044,263.416290 399.417480,267.585052 399.284485,271.746277 
	C399.165161,275.479401 397.286407,278.415955 393.583191,278.986511 
	C384.690063,280.356628 375.731110,281.005096 366.738586,279.559967 
	C362.076202,278.810699 359.808228,275.983246 359.209412,271.532898 
	C359.032074,270.214905 358.938812,268.881195 358.886230,267.551544 
	C358.341553,253.774475 360.717987,251.244263 375.102875,250.752762 
M386.227844,273.074860 
	C392.805939,272.405701 392.878876,271.926392 392.863770,263.235718 
	C392.854340,257.820404 389.551849,257.309357 385.653534,257.414551 
	C380.332825,257.558075 375.020294,257.989777 369.702728,258.269287 
	C367.514435,258.384338 366.316742,259.450409 366.229553,261.669800 
	C366.164246,263.332245 366.196381,265.002197 366.051941,266.657166 
	C365.650970,271.252502 367.449219,273.430237 372.308716,273.128021 
	C376.620636,272.859894 380.963135,273.083221 386.227844,273.074860 
z"/>
<path fill="#000000" opacity="1.000000" stroke="none" 
	d="
M325.871826,269.230347 
	C321.450165,266.982330 317.364563,264.890625 312.272736,262.283813 
	C312.272736,267.997803 312.282593,272.584656 312.268311,277.171448 
	C312.261871,279.239349 311.143646,280.137238 309.124969,280.136871 
	C307.188629,280.136536 305.815613,279.435730 305.805145,277.326080 
	C305.763336,268.890472 305.787872,260.454498 305.787872,250.901413 
	C317.284271,256.762909 327.942047,262.196808 338.987518,267.828400 
	C340.242706,262.594177 339.417542,258.117340 339.715210,253.708862 
	C339.855988,251.623993 340.871460,250.777023 342.872864,250.752106 
	C344.648926,250.730026 346.528290,250.881332 346.635986,253.037277 
	C347.063171,261.590149 347.268829,270.152100 346.466736,279.457306 
	C338.819885,276.528412 332.683594,272.598328 325.871826,269.230347 
z"/>
<path fill="#000000" opacity="1.000000" stroke="none" 
	d="
M158.459167,257.484863 
	C160.910477,254.567169 162.439682,251.325897 165.999481,248.825317 
	C173.589172,258.796143 181.129440,268.702057 189.037827,279.091583 
	C184.056931,280.821991 180.968796,280.239563 178.221191,276.573761 
	C172.389984,268.793793 159.097763,268.924622 152.908051,276.703552 
	C150.423264,279.826324 147.599594,280.975372 143.123428,279.137695 
	C147.308472,271.235565 153.345245,264.884308 158.459167,257.484863 
M163.004227,263.671478 
	C164.675430,265.143738 166.332672,264.800140 168.213943,263.876434 
	C166.638672,260.723419 165.102661,259.656372 163.004227,263.671478 
z"/>
</svg>