<svg version="1.1" id="Layer_1" xmlns="http://www.w3.org/2000/svg" xmlns:xlink="http://www.w3.org/1999/xlink" x="0px" y="0px"
	 width="100%" viewBox="0 0 320 256" enable-background="new 0 0 320 256" xml:space="preserve">
<path fill="#000000" opacity="1.000000" stroke="none" 
	d="
M119.646698,130.583649 
	C113.050217,125.189102 107.118462,119.360954 107.396553,110.653488 
	C107.583740,104.792542 105.037186,102.426277 100.536827,100.016357 
	C96.504951,97.857292 94.071922,93.860352 92.447258,89.537979 
	C90.697098,84.881752 91.342072,83.866913 96.210350,83.803062 
	C100.706223,83.744095 105.204872,83.861870 109.699715,83.772392 
	C112.159821,83.723412 114.051216,84.425911 115.946709,86.162552 
	C119.682777,89.585548 123.363205,89.355003 126.485329,86.010963 
	C129.289536,83.007446 129.307846,79.036896 126.530853,76.134109 
	C123.744926,73.221985 119.580345,73.301674 115.856667,76.506477 
	C114.816185,77.401978 113.906021,78.286301 112.448204,78.290680 
	C107.285690,78.306198 102.123138,78.356377 96.960785,78.338531 
	C95.490456,78.333458 94.020775,78.142082 91.910164,77.989960 
	C92.171341,70.856171 95.366898,65.427200 101.048531,62.371761 
	C106.343086,59.524483 107.961403,56.100437 107.860168,50.281002 
	C107.743675,43.584908 111.705292,38.353027 117.058777,34.484627 
	C119.238487,32.909580 120.311729,31.196354 120.898087,28.512270 
	C124.404091,12.463167 142.279694,4.974508 156.131897,13.619044 
	C161.525970,16.985231 164.799683,21.297909 164.434875,28.312166 
	C163.925201,38.111954 164.081619,47.964638 164.388962,57.781036 
	C164.544556,62.750809 161.887848,63.068237 158.153381,63.042210 
	C154.350922,63.015697 151.321899,63.018475 151.541595,57.623314 
	C151.840469,50.284016 151.502182,50.202370 144.363586,50.262333 
	C140.943024,50.291061 138.046631,49.846474 135.328903,47.183537 
	C132.309738,44.225216 128.461792,44.580738 125.517319,47.659298 
	C122.723930,50.579906 122.834267,53.969360 125.376053,57.144485 
	C127.796684,60.168262 131.795685,60.540302 135.203323,58.083546 
	C136.007736,57.503597 136.619003,56.645222 137.444305,56.106800 
	C139.728302,54.616707 142.250778,54.696194 144.613358,55.701210 
	C146.752487,56.611176 146.141693,58.812706 146.200302,60.563969 
	C146.442383,67.797798 146.415558,67.762421 153.703064,67.806442 
	C165.846375,67.879807 164.176758,66.562828 164.297684,78.510620 
	C164.344879,83.173340 164.167145,87.841721 164.336395,92.498642 
	C164.456116,95.792801 162.986847,96.962784 159.884537,96.929146 
	C155.056244,96.876785 150.225662,97.045967 145.397064,97.004532 
	C142.424454,96.979034 141.286545,98.283836 141.310867,101.252487 
	C141.354828,106.615242 142.063843,111.912659 137.845322,116.701431 
	C135.595703,119.255142 136.762299,123.233315 140.012238,125.416710 
	C143.162704,127.533287 146.362701,127.273514 149.047607,124.459244 
	C151.675385,121.704880 152.042313,118.629395 149.810654,115.409691 
	C148.875366,114.060318 147.373795,113.171776 146.877838,111.444359 
	C144.992981,104.879616 146.964828,102.157616 153.749390,102.082230 
	C165.957169,101.946602 164.093460,101.942413 164.211166,112.615807 
	C164.282806,119.110260 164.234695,125.606117 164.228058,132.101334 
	C164.216019,143.866592 156.353531,151.900253 144.469604,152.301361 
	C132.866180,152.692993 123.354561,145.503418 120.655624,134.309158 
	C120.382973,133.178268 120.067467,132.057709 119.646698,130.583649 
z"/>
<path fill="#000000" opacity="1.000000" stroke="none" 
	d="
M185.492676,107.293190 
	C182.894562,107.476952 182.328323,108.871849 182.356430,110.761398 
	C182.376236,112.093513 182.348190,113.426353 182.341537,114.758865 
	C182.312088,120.661087 176.775803,123.762207 171.280975,121.025169 
	C169.743378,120.259285 169.753448,118.940697 169.751877,117.646782 
	C169.724182,94.826805 169.742310,72.006767 169.706985,49.186813 
	C169.702942,46.575382 170.989792,45.559490 173.408508,45.713261 
	C179.021240,46.070107 184.795502,44.333824 189.935944,48.908337 
	C192.498871,51.189079 196.395721,50.174099 198.778152,47.081844 
	C201.148911,44.004742 200.857742,40.785126 198.319855,38.004631 
	C195.585159,35.008511 191.846008,34.214851 189.026123,37.138756 
	C184.059784,42.288277 178.117966,39.706818 172.562302,40.174644 
	C171.098312,40.297916 170.245651,39.373661 169.816177,37.841366 
	C165.851456,23.696171 172.280563,13.203864 186.683044,10.430131 
	C198.687225,8.118277 210.788635,16.459478 213.201736,28.985703 
	C213.658737,31.357931 214.618011,32.783443 216.476990,34.166603 
	C223.009552,39.027100 226.866119,45.404060 226.298660,53.796043 
	C226.062790,57.284386 227.412048,59.059612 230.464706,60.770222 
	C243.311707,67.969261 246.746140,83.689751 238.231522,94.995430 
	C237.258606,96.287292 236.477859,97.871262 234.119446,97.875351 
	C233.253159,94.839546 233.614594,91.693375 233.708206,88.629639 
	C233.806702,85.405502 232.604904,84.114525 229.352020,84.204742 
	C224.026077,84.352448 218.690384,84.316231 213.363525,84.176987 
	C211.348724,84.124321 208.211639,85.129066 207.769913,82.402275 
	C207.246841,79.173149 206.501114,75.608055 209.177689,72.488770 
	C213.223160,67.774178 212.448853,62.835640 207.688232,60.459438 
	C204.515244,58.875675 201.778885,59.707310 199.550369,62.060585 
	C197.312302,64.423988 196.106598,67.749130 198.554932,70.166367 
	C202.546478,74.107170 202.537216,78.705925 202.168823,83.520119 
	C201.858383,87.577042 203.316498,89.289955 207.537354,89.095619 
	C213.022079,88.843086 218.528107,89.021332 224.024490,89.068634 
	C226.345764,89.088608 228.329758,89.506027 228.330093,92.590111 
	C228.331009,101.190834 228.038651,110.358910 224.421219,117.679039 
	C219.745880,127.139908 213.295303,136.010162 207.152420,144.685699 
	C199.122330,156.026505 180.367645,154.504486 171.837616,143.371597 
	C168.387833,138.869141 169.864105,133.800705 169.932571,128.919968 
	C169.959183,127.022484 171.873886,126.888092 173.396469,126.858391 
	C176.726791,126.793427 180.063782,126.675568 183.388168,126.815125 
	C186.581757,126.949188 188.061234,125.708275 187.779251,122.444916 
	C187.664978,121.122627 187.659912,119.770035 187.798569,118.451584 
	C188.012619,116.416229 186.914764,113.727287 189.486252,112.665962 
	C192.162796,111.561279 195.028839,111.612793 197.531662,113.543106 
	C198.452606,114.253380 199.311874,115.075356 200.314850,115.641731 
	C203.722641,117.566055 206.889832,116.903305 209.251266,113.982765 
	C211.607346,111.068825 211.601105,107.688828 209.101456,104.845085 
	C206.622803,102.025223 202.718338,100.879799 200.215698,103.555824 
	C195.960464,108.105858 190.917023,107.007149 185.492676,107.293190 
z"/>
<path fill="#000000" opacity="1.000000" stroke="none" 
	d="
M95.376091,207.477112 
	C100.392250,204.987122 105.440681,206.392014 110.367050,206.135620 
	C115.019402,205.893463 119.694351,206.117920 124.357338,206.029846 
	C125.931946,206.000107 128.229355,206.384460 128.393661,204.168137 
	C128.583298,201.609802 126.028023,201.600098 124.372246,201.543091 
	C118.214821,201.331039 112.048241,201.387695 105.885139,201.337311 
	C99.170876,201.282425 95.331467,198.301544 95.014595,192.906876 
	C94.712090,187.756836 98.522560,183.640457 104.959366,183.349213 
	C114.101250,182.935547 123.272896,183.147507 132.431717,183.160858 
	C135.023132,183.164642 136.338791,184.442093 136.249527,187.232986 
	C136.155869,190.162018 134.261353,190.277206 132.152924,190.279160 
	C123.823471,190.286880 115.493713,190.254669 107.164803,190.324280 
	C105.461349,190.338516 102.815315,189.710327 102.771149,192.269501 
	C102.722862,195.067429 105.463364,194.662811 107.373085,194.686646 
	C113.369438,194.761505 119.367668,194.683395 125.364105,194.754868 
	C129.628983,194.805695 133.220993,196.246002 135.268204,200.286865 
	C137.783493,205.251587 135.149490,210.727081 129.393356,212.312744 
	C123.835426,213.843826 118.123482,212.948669 112.480766,213.091354 
	C108.152489,213.200806 103.817642,213.031067 99.487915,213.108429 
	C95.727043,213.175629 94.256760,211.527908 95.376091,207.477112 
z"/>
<path fill="#000000" opacity="1.000000" stroke="none" 
	d="
M163.007324,183.704926 
	C170.658829,183.709015 177.812103,183.710190 184.965393,183.718536 
	C187.281952,183.721237 189.287903,183.954727 189.292435,187.114685 
	C189.297134,190.402222 187.126694,190.324188 184.894913,190.326141 
	C176.410767,190.333511 167.926453,190.308426 159.442596,190.358627 
	C157.873932,190.367905 155.723343,189.917969 155.539413,192.325378 
	C155.324890,195.133377 157.658813,194.819244 159.417542,194.865692 
	C164.239502,194.993103 169.064651,194.996613 173.887421,195.100464 
	C176.300003,195.152420 178.062775,195.916763 178.109497,198.834122 
	C178.161255,202.065033 176.018661,202.140991 173.749451,202.149490 
	C169.424271,202.165710 165.094818,202.050583 160.775726,202.215469 
	C158.851242,202.288925 155.721497,201.065811 155.585297,204.318359 
	C155.441223,207.758957 158.653397,206.582108 160.536606,206.612137 
	C168.519684,206.739441 176.506012,206.650055 184.490982,206.682571 
	C186.799118,206.691971 189.348389,206.347153 189.288818,210.009460 
	C189.229095,213.681519 186.610474,213.209900 184.354431,213.216690 
	C174.206863,213.247253 164.057678,213.111374 153.912109,213.252808 
	C150.122208,213.305649 148.474747,212.050125 148.608032,208.071472 
	C148.830704,201.424637 148.765030,194.763306 148.635544,188.111664 
	C148.573318,184.915192 149.818970,183.552567 153.028137,183.688599 
	C156.183014,183.822357 159.348373,183.709473 163.007324,183.704926 
z"/>
<path fill="#000000" opacity="1.000000" stroke="none" 
	d="
M269.228821,183.813019 
	C276.173401,183.945694 282.673462,183.035812 289.111389,184.562378 
	C293.073486,185.501877 295.214630,187.835358 295.304993,191.866669 
	C295.402069,196.196426 295.451263,200.536102 295.267334,204.860626 
	C295.110321,208.551697 293.259277,211.421173 289.476929,212.016205 
	C280.740021,213.390671 271.940308,213.914032 263.118225,212.660538 
	C258.323761,211.979294 255.710571,209.232651 255.274277,204.413956 
	C255.124207,202.756516 254.907669,201.100235 254.857697,199.439331 
	C254.490067,187.224564 256.655853,184.806458 269.228821,183.813019 
M285.830414,205.701630 
	C290.717712,204.002975 288.238617,199.837997 288.733337,196.736191 
	C289.453156,192.223007 286.994263,190.271835 282.719971,190.426071 
	C277.090790,190.629181 271.468658,191.021591 265.840454,191.260986 
	C263.372864,191.365952 262.225311,192.606918 262.188477,194.996933 
	C262.157837,196.984741 262.234985,198.977997 262.115143,200.959824 
	C261.899780,204.522141 263.453278,206.141342 267.060577,206.051163 
	C273.024414,205.902023 278.991974,205.903595 285.830414,205.701630 
z"/>
<path fill="#000000" opacity="1.000000" stroke="none" 
	d="
M232.322662,207.727661 
	C224.484955,203.651260 216.971512,199.754639 209.074295,195.658981 
	C207.672134,200.256531 208.590164,204.545654 208.349518,208.742249 
	C208.220367,210.994781 208.320541,213.171158 205.084946,213.151718 
	C201.974319,213.133057 201.701874,211.120682 201.703796,208.782455 
	C201.710342,200.860275 201.706299,192.938110 201.706299,183.841309 
	C213.300278,189.778915 223.851837,195.182678 234.798203,200.788620 
	C236.366837,195.814621 235.424728,191.343475 235.690399,186.976471 
	C235.831223,184.661942 236.823166,183.750580 239.091782,183.729324 
	C241.262711,183.709000 242.769409,184.413376 242.789749,186.729614 
	C242.862381,195.006470 243.397018,203.301285 242.328827,211.896606 
	C238.385590,211.726578 235.791290,209.103622 232.322662,207.727661 
z"/>
<path fill="#000000" opacity="1.000000" stroke="none" 
	d="
M61.796349,182.073730 
	C69.624962,191.984940 77.169624,201.772980 85.089684,212.048065 
	C80.320236,213.699661 77.250542,213.340012 74.542885,209.925964 
	C68.138794,201.851028 55.265820,201.815323 48.834045,209.692200 
	C45.887558,213.300705 44.859566,213.592575 38.731098,211.957077 
	C46.223911,201.554703 53.307800,191.351593 61.796349,182.073730 
M63.717342,197.194656 
	C64.166901,195.331741 62.947826,194.143951 61.542820,194.156204 
	C60.129581,194.168518 59.091335,195.486176 59.317429,197.468430 
	C60.669563,197.468430 61.949387,197.468430 63.717342,197.194656 
z"/>
</svg>